<?xml version="1.0" standalone="no"?>
<!DOCTYPE svg PUBLIC "-//W3C//DTD SVG 20010904//EN"
 "http://www.w3.org/TR/2001/REC-SVG-20010904/DTD/svg10.dtd">
<svg version="1.0" xmlns="http://www.w3.org/2000/svg"
 width="512.000000pt" height="512.000000pt" viewBox="0 0 512.000000 512.000000"
 preserveAspectRatio="xMidYMid meet">

<g transform="translate(0.000000,512.000000) scale(0.100000,-0.100000)"
fill="#000000" stroke="none">
<path d="M2541 4484 c-18 -23 -21 -41 -21 -121 0 -86 2 -96 25 -118 31 -32 75
-32 112 -1 27 23 28 28 28 119 0 87 -2 98 -24 121 -34 36 -92 36 -120 0z"/>
<path d="M2005 4365 c-30 -30 -31 -58 -4 -130 30 -82 62 -115 109 -115 52 0
94 47 84 94 -10 48 -50 132 -73 155 -30 30 -85 28 -116 -4z"/>
<path d="M3082 4368 c-32 -35 -72 -129 -72 -170 0 -28 6 -42 26 -57 34 -27 88
-27 114 -1 28 28 71 128 73 169 2 68 -94 109 -141 59z"/>
<path d="M2403 4075 c-498 -90 -895 -495 -979 -997 -23 -141 -15 -345 19 -479
52 -200 162 -397 313 -559 105 -113 136 -153 173 -227 65 -127 101 -283 101
-436 0 -99 18 -122 106 -133 132 -16 514 35 602 80 42 22 92 74 111 116 23 52
29 481 7 534 -33 78 -140 82 -178 6 -16 -30 -18 -66 -18 -262 l0 -228 -60 0
-60 0 0 240 0 240 -29 32 c-24 27 -36 33 -71 33 -35 0 -47 -6 -71 -33 l-29
-32 0 -240 0 -240 -53 0 -53 0 -16 104 c-19 120 -54 232 -104 331 -41 81 -75
125 -197 253 -192 203 -284 408 -295 659 -12 281 80 527 274 733 91 97 179
162 289 215 137 67 224 87 395 92 130 4 155 2 241 -20 290 -75 528 -267 659
-532 86 -172 123 -375 100 -545 -33 -249 -120 -420 -323 -637 -186 -199 -244
-332 -277 -636 -12 -119 -38 -176 -110 -240 -102 -92 -341 -146 -647 -147
l-152 0 -20 -26 c-48 -61 -13 -166 64 -193 77 -26 405 2 626 53 205 48 386
117 412 157 12 18 18 76 26 239 10 221 20 279 65 392 38 95 84 160 201 293
217 246 316 457 346 740 16 153 0 299 -52 470 -130 424 -503 755 -937 830
-102 18 -300 18 -399 0z"/>
<path d="M1475 4032 c-38 -8 -65 -43 -65 -83 0 -30 9 -48 41 -85 59 -69 87
-88 127 -88 25 0 41 7 58 28 42 48 28 100 -48 173 -46 45 -81 62 -113 55z"/>
<path d="M3634 3998 c-54 -47 -94 -107 -94 -139 0 -45 38 -81 85 -81 36 0 46
6 102 66 56 58 63 71 63 106 0 84 -86 110 -156 48z"/>
<path d="M2453 3646 c-201 -65 -357 -212 -438 -413 l-24 -58 -55 -6 c-61 -7
-80 -18 -102 -61 -33 -64 19 -148 92 -148 34 0 34 0 34 -45 0 -45 0 -45 -34
-45 -43 0 -92 -39 -101 -80 -8 -38 21 -100 55 -117 14 -7 46 -13 72 -13 l47 0
35 -74 c127 -263 379 -419 651 -403 153 10 281 55 383 136 43 34 52 47 52 73
0 40 -33 92 -74 117 -44 27 -65 26 -110 -4 -109 -74 -200 -100 -321 -93 -64 5
-96 12 -148 37 -68 33 -166 120 -200 180 l-18 31 238 0 c220 0 240 2 271 20
59 36 67 113 16 161 -25 24 -27 24 -302 29 l-277 5 -3 43 -3 42 315 0 c180 0
326 4 340 10 65 24 82 118 31 169 l-25 26 -305 3 c-168 2 -305 7 -305 11 0 24
90 139 139 177 85 67 147 88 261 88 116 0 175 -21 270 -94 36 -27 73 -49 83
-50 53 -1 127 77 127 134 0 64 -176 183 -325 221 -93 24 -254 19 -342 -9z"/>
<path d="M1129 3471 c-28 -22 -33 -88 -9 -116 25 -30 131 -75 177 -75 33 0 46
5 62 26 48 61 11 124 -95 163 -68 26 -105 26 -135 2z"/>
<path d="M3941 3470 c-50 -18 -85 -40 -103 -65 -14 -18 -8 -80 8 -104 15 -20
23 -23 68 -19 28 3 77 17 110 33 70 33 96 77 75 127 -22 53 -67 61 -158 28z"/>
<path d="M1034 2921 c-55 -23 -70 -96 -30 -136 29 -29 76 -39 163 -33 59 4 68
7 95 37 25 27 29 39 24 65 -12 58 -36 71 -139 73 -50 2 -102 -1 -113 -6z"/>
<path d="M3965 2918 c-53 -28 -62 -98 -19 -139 21 -20 38 -24 101 -28 103 -5
150 10 169 54 18 44 3 90 -37 110 -33 18 -184 20 -214 3z"/>
<path d="M1204 2430 c-33 -16 -69 -39 -79 -50 -43 -48 -6 -140 56 -140 41 0
137 40 170 71 59 55 27 149 -52 149 -19 0 -61 -14 -95 -30z"/>
<path d="M3845 2435 c-29 -28 -33 -79 -11 -111 18 -25 124 -74 176 -81 51 -7
90 29 90 82 0 43 -20 65 -99 105 -75 37 -123 39 -156 5z"/>
<path d="M1422 2133 c-91 -79 -115 -151 -67 -198 45 -46 101 -29 178 54 58 61
62 97 18 142 -39 39 -85 39 -129 2z"/>
<path d="M3649 2131 c-44 -45 -40 -81 18 -142 77 -83 133 -100 178 -54 36 35
33 83 -8 137 -68 89 -136 111 -188 59z"/>
<path d="M3025 909 c-241 -91 -678 -161 -870 -140 -38 5 -72 7 -74 5 -12 -11
33 -79 94 -140 201 -203 527 -232 768 -68 84 58 138 119 183 210 28 55 35 80
32 115 -3 39 -6 44 -28 46 -14 1 -61 -12 -105 -28z"/>
</g>
</svg>
